PathFileType	4	(X/Y/Z)	./resultDataOpenSim/trcMotMarkerGrf/sub10/qtm-14-01.trc
DataRate	CameraRate	NumFrames	NumMarkers	Units	OrigDataRate	OrigDataStartFrame	OrigNumFrames
250.000000	250.000000	5	24	m	250.000000	171	454
Frame#	Time	L.Toe.Tip			R.Toe.Tip			L.Ankle.Lat			R.Ankle.Lat			L.Ankle.Med			R.Ankle.Med			L.Heel			R.Heel			L.Knee.Lat			R.Knee.Lat			L.Knee.Med			R.Knee.Med			L.Thigh.Upper			R.Thigh.Upper			L.ASIS			R.ASIS			V.Sacral			L.Acromium			R.Acromium			C7			L.Elbow			R.Elbow			L.Wrist.Lat			R.Wrist.Lat
		X1	Y1	Z1	X2	Y2	Z2	X3	Y3	Z3	X4	Y4	Z4	X5	Y5	Z5	X6	Y6	Z6	X7	Y7	Z7	X8	Y8	Z8	X9	Y9	Z9	X10	Y10	Z10	X11	Y11	Z11	X12	Y12	Z12	X13	Y13	Z13	X14	Y14	Z14	X15	Y15	Z15	X16	Y16	Z16	X17	Y17	Z17	X18	Y18	Z18	X19	Y19	Z19	X20	Y20	Z20	X21	Y21	Z21	X22	Y22	Z22	X23	Y23	Z23	X24	Y24	Z24

171	0.68	0.049486443	-0.033087353	-0.095806307	-0.6325055	0.07920188	0.042844617	-0.085605479	-0.0066718531	-0.13021431	-0.66105279	0.2227487	0.085551658	-0.082547676	0.017320706	-0.047526331	-0.61883038	0.20545478	0.011365883	-0.15159174	-0.038179112	-0.091010125	-0.69374066	0.25591826	0.03266866	-0.044795959	0.38092809	-0.16929411	-0.31666798	0.38178082	0.12810735	-0.049962942	0.36792447	-0.04794039	-0.25560354	0.34341447	0.010105221	-0.13010422	0.75433766	-0.23868489	-0.24256192	0.77666483	0.13629357	-0.10297049	0.85046609	-0.15298351	-0.14591481	0.86309134	0.069634847	-0.31770193	0.88651042	-0.086245957	-0.18527579	1.3241681	-0.24430216	-0.22990593	1.3388236	0.075136103	-0.28409867	1.3529042	-0.10061001	-0.36410021	1.0337867	-0.23152357	-0.31855681	1.0174576	0.22083906	-0.3421972	0.79431988	-0.29302271	-0.075473123	0.97135259	0.27213099
172	0.684	0.04970457	-0.033187404	-0.095962404	-0.61920833	0.086282227	0.049504487	-0.085221548	-0.006722652	-0.13038557	-0.64688206	0.23098205	0.086395229	-0.082284091	0.017409099	-0.047560209	-0.60475646	0.21167858	0.012219026	-0.15144184	-0.037783756	-0.091096469	-0.67923272	0.26343177	0.032592774	-0.037575083	0.38078229	-0.16943351	-0.29964147	0.37968605	0.12889927	-0.041209031	0.36875931	-0.048758166	-0.23875938	0.34328534	0.01052008	-0.12559494	0.75434687	-0.23946946	-0.23425601	0.77525985	0.13658911	-0.097114682	0.84944114	-0.15313831	-0.1397038	0.86227648	0.06831254	-0.31159021	0.88590972	-0.086048506	-0.17625731	1.3235419	-0.24439113	-0.2222498	1.3385051	0.074879869	-0.27491364	1.3534309	-0.10134027	-0.35488904	1.0328198	-0.2336426	-0.31371614	1.0179676	0.21979949	-0.33273874	0.7934378	-0.29553089	-0.072056539	0.97098657	0.27580848
173	0.688	0.049858732	-0.033300906	-0.096100384	-0.605092	0.093652852	0.0562048	-0.084856273	-0.0068133451	-0.13061419	-0.63217836	0.23913232	0.087158062	-0.081737012	0.017474654	-0.047527326	-0.59001059	0.21791852	0.013060956	-0.15134035	-0.037460387	-0.09127922	-0.66402713	0.27092472	0.03248815	-0.031370622	0.38016502	-0.16961465	-0.28153645	0.37775686	0.12969402	-0.032711115	0.36898119	-0.049716769	-0.2220453	0.34366579	0.010731555	-0.12129787	0.75410645	-0.24021316	-0.22616736	0.77399332	0.13674568	-0.091206132	0.84869431	-0.15349772	-0.1338661	0.8616449	0.067145179	-0.30564111	0.88548527	-0.085423737	-0.16716857	1.3229748	-0.24440632	-0.21441166	1.3381941	0.07455742	-0.26554185	1.3540546	-0.10198479	-0.34568863	1.0319315	-0.23599912	-0.30899352	1.0186841	0.21904259	-0.32289789	0.79260094	-0.29812708	-0.06874748	0.97084491	0.27979673
174	0.692	0.049975966	-0.0334186	-0.09622753	-0.59029083	0.10129897	0.062717204	-0.084473773	-0.0069485138	-0.13082836	-0.61695817	0.24718653	0.087871515	-0.081050189	0.017547001	-0.047470478	-0.57468373	0.22415681	0.013993689	-0.15126547	-0.037198863	-0.091469592	-0.64811834	0.27836198	0.032437121	-0.026150006	0.37926207	-0.16981146	-0.2620807	0.37606524	0.13076332	-0.024858157	0.36856597	-0.050736303	-0.20543251	0.34435823	0.0108205	-0.11713112	0.75375168	-0.24093222	-0.2183429	0.77289418	0.13675232	-0.085323241	0.84821663	-0.15411699	-0.12833839	0.86121157	0.066129359	-0.29945415	0.88501641	-0.084752509	-0.15799311	1.3224611	-0.24436104	-0.20638	1.3378959	0.074205727	-0.25615258	1.3546582	-0.10253276	-0.33650626	1.03119	-0.2385269	-0.304411	1.0195449	0.21852161	-0.31262243	0.7918586	-0.30092549	-0.065562022	0.97096063	0.28411346
175	0.696	0.050080684	-0.033526548	-0.0963417	-0.57487602	0.10917408	0.068855052	-0.084069795	-0.0070860431	-0.13096954	-0.60101083	0.25521263	0.088648648	-0.080478715	0.017608301	-0.04740982	-0.55886956	0.23037685	0.015041138	-0.15119605	-0.03695653	-0.091588542	-0.63169832	0.285688	0.032531604	-0.021710305	0.37822264	-0.16998763	-0.24210898	0.37477542	0.13209874	-0.017958285	0.36752492	-0.051669736	-0.18886591	0.34517996	0.010807793	-0.11305014	0.75335586	-0.2416278	-0.21075764	0.77198522	0.13662208	-0.079619643	0.84801637	-0.15498266	-0.12305611	0.86094752	0.065270648	-0.29354737	0.88453656	-0.083887807	-0.14873435	1.321983	-0.24424687	-0.1981617	1.3376145	0.07385046	-0.24692784	1.3551783	-0.10293072	-0.32722444	1.0306451	-0.24115773	-0.29995188	1.0205202	0.21815721	-0.30193393	0.79126632	-0.3039676	-0.062499194	0.97135326	0.28877155
